<svg width="40" height="40" viewBox="0 0 40 40" fill="none" xmlns="http://www.w3.org/2000/svg">
<path d="M30.1408 7.58008C27.1008 7.67328 27.1016 12.0469 30.1408 12.1393C33.1808 12.0461 33.18 7.67248 30.1408 7.58008ZM20 10.2193C14.612 10.2193 10.2444 14.5985 10.2444 20.0005C10.7584 32.9753 29.2432 32.9717 29.7552 20.0005C29.7556 14.5985 25.3876 10.2193 20 10.2193ZM20 26.3497C16.5028 26.3497 13.6676 23.5069 13.6676 20.0005C14.0012 11.5785 26.0004 11.5805 26.3328 20.0005C26.3324 23.5073 23.4972 26.3497 20 26.3497Z" fill="url(#paint0_linear_930_627)"/>
<path d="M38.8832 12.1673C38.7424 5.50045 34.5008 1.25645 27.8324 1.11685C26.2312 0.962452 13.7696 0.959652 12.1672 1.11685C5.50036 1.25765 1.25636 5.49925 1.11676 12.1677C0.962359 13.7665 0.959159 26.2321 1.11676 27.8329C1.24116 34.4781 5.52116 38.7593 12.1672 38.8833C13.7684 39.0393 26.23 39.0393 27.8324 38.8833C29.8544 38.7909 31.2356 38.4697 32.444 38.0001C36.6788 36.3085 38.748 32.5457 38.8832 27.8325C39.0376 26.2313 39.0404 13.7697 38.8832 12.1673ZM27.6764 35.4637C26.1008 35.6141 13.9 35.6165 12.3232 35.4637C10.4712 35.3793 9.46516 35.0697 8.79556 34.8097C3.01596 32.1289 4.80796 26.7077 4.53556 19.2665C4.54156 17.5381 4.53196 14.0521 4.53596 12.3237C4.76676 7.17085 7.19356 4.78525 12.3232 4.53645C13.9008 4.38605 26.0984 4.38365 27.6764 4.53645C32.8308 4.76725 35.214 7.19405 35.4636 12.3233C35.5656 13.5549 35.6396 20.2781 35.4636 23.6805C35.6536 30.0709 35.3624 35.0889 27.6764 35.4637Z" fill="url(#paint1_linear_930_627)"/>
<defs>
<linearGradient id="paint0_linear_930_627" x1="10.2444" y1="18.6552" x2="32.4205" y2="18.6552" gradientUnits="userSpaceOnUse">
<stop stop-color="#B224EF"/>
<stop offset="1" stop-color="#7579FF"/>
</linearGradient>
<linearGradient id="paint1_linear_930_627" x1="0.999756" y1="20.0001" x2="39" y2="20.0001" gradientUnits="userSpaceOnUse">
<stop stop-color="#B224EF"/>
<stop offset="1" stop-color="#7579FF"/>
</linearGradient>
</defs>
</svg>
