<svg width="40" height="40" viewBox="0 0 40 40" fill="none" xmlns="http://www.w3.org/2000/svg">
<path d="M36.1916 1.00535C30.3472 0.98895 8.7908 1.01655 3.8084 1.00535C2.258 1.00535 1 2.22495 1 3.72695V36.2794C1 37.7817 2.258 39.0001 3.8084 39.0001H36.1916C37.7428 39.0001 39 37.7817 39 36.2789V3.72695C39 2.22495 37.7428 1.00535 36.1916 1.00535Z" fill="url(#paint0_linear_930_633)"/>
<path d="M21.3812 32.803C21.3812 32.803 21.3812 23.2518 21.3812 23.2514C21.3256 21.4962 22.3748 19.8582 24.486 19.7846C26.5432 19.7846 27.3664 21.353 27.3664 23.6526V32.8026H33.052V22.995C33.052 17.741 30.2472 15.2962 26.506 15.2962C23.4388 15.2962 22.0916 17.0102 21.3432 18.1778L21.3812 15.6978H15.6956C15.7696 17.3026 15.6952 32.803 15.6952 32.803H21.3812ZM12.548 25.3854V15.6974H6.86158V32.8026H12.5484C12.5472 31.0066 12.5504 27.1562 12.548 25.3854ZM9.70598 13.3626C11.6884 13.3626 12.9228 12.049 12.9228 10.4078C12.9064 6.44895 6.52118 6.49295 6.52638 10.4074C6.52198 12.0614 7.79038 13.383 9.70598 13.3626Z" fill="white"/>
<defs>
<linearGradient id="paint0_linear_930_633" x1="1" y1="20.0001" x2="39" y2="20.0001" gradientUnits="userSpaceOnUse">
<stop stop-color="#B224EF"/>
<stop offset="1" stop-color="#7579FF"/>
</linearGradient>
</defs>
</svg>
