<svg width="40" height="40" viewBox="0 0 40 40" fill="none" xmlns="http://www.w3.org/2000/svg">
<path d="M38.5683 8.44961C37.2015 9.05681 35.7331 9.46521 34.1919 9.64961C35.7659 8.70681 36.9727 7.21441 37.5411 5.43481C36.0699 6.30761 34.4391 6.94161 32.7019 7.28441C31.3123 5.80321 29.3327 4.87761 27.1415 4.87761C22.2983 4.81281 18.5747 9.54441 19.7207 14.2316C13.3891 13.9144 7.77588 10.8808 4.01668 6.27001C1.96508 9.61561 3.12988 14.4 6.37508 16.4424C5.12668 16.4024 3.95108 16.0596 2.92428 15.4896C2.87668 19.2116 5.51709 22.354 9.03588 23.0552C7.95468 23.3568 6.70908 23.404 5.59508 23.1864C6.56508 26.2128 9.37868 28.4168 12.7123 28.478C9.69829 30.8864 5.47868 32.142 1.43188 31.6332C17.7047 41.648 35.6939 28.5272 34.7651 12.3928C36.2543 11.3176 37.5471 9.97641 38.5683 8.44961Z" fill="url(#paint0_linear_930_636)"/>
<defs>
<linearGradient id="paint0_linear_930_636" x1="1.43188" y1="20.0007" x2="38.5683" y2="20.0007" gradientUnits="userSpaceOnUse">
<stop stop-color="#B224EF"/>
<stop offset="1" stop-color="#7579FF"/>
</linearGradient>
</defs>
</svg>
